<?xml version="1.0" encoding="UTF-8"?>
<svg xmlns="http://www.w3.org/2000/svg" viewBox="0 0 200 200" width="200" height="200">
  <!-- Circle background with shadow effect -->
  <filter id="shadow" x="-20%" y="-20%" width="140%" height="140%">
    <feDropShadow dx="0" dy="2" stdDeviation="3" flood-opacity="0.2"/>
  </filter>
  
  <!-- Main circular outline -->
  <circle cx="100" cy="100" r="90" fill="white" filter="url(#shadow)"/>
  
  <!-- Human profile silhouette -->
  <path d="M100,40 C120,40 135,65 135,95 C135,120 125,140 100,155 C75,140 65,120 65,95 C65,65 80,40 100,40" 
        fill="none" stroke="#0F2E48" stroke-width="8" stroke-linejoin="round"/>
  
  <!-- Brain icon -->
  <path d="M85,70 C95,65 105,65 115,70 C120,75 125,85 120,90 C125,95 120,105 115,105 C110,110 105,115 95,115 C85,115 80,110 75,105 C70,105 65,95 70,90 C65,85 70,75 75,70 C80,65 85,65 85,70" 
        fill="#20B2AA" stroke="white" stroke-width="2"/>
  
  <!-- Stock chart lines - upper -->
  <path d="M135,65 L145,60 L155,75 L165,55" 
        fill="none" stroke="#0F2E48" stroke-width="5" stroke-linecap="round" stroke-linejoin="round"/>
  <!-- Data points -->
  <circle cx="135" cy="65" r="4" fill="#0F2E48"/>
  <circle cx="145" cy="60" r="4" fill="#0F2E48"/>
  <circle cx="155" cy="75" r="4" fill="#0F2E48"/>
  <circle cx="165" cy="55" r="4" fill="#0F2E48"/>
  
  <!-- Stock chart lines - lower -->
  <path d="M35,125 L45,140 L55,130 L65,145" 
        fill="none" stroke="#0F2E48" stroke-width="5" stroke-linecap="round" stroke-linejoin="round"/>
  <!-- Data points -->
  <circle cx="35" cy="125" r="4" fill="#0F2E48"/>
  <circle cx="45" cy="140" r="4" fill="#0F2E48"/>
  <circle cx="55" cy="130" r="4" fill="#0F2E48"/>
  <circle cx="65" cy="145" r="4" fill="#0F2E48"/>
  
  <!-- Curved accent line -->
  <path d="M30,100 C40,150 160,150 170,100" 
        fill="none" stroke="#20B2AA" stroke-width="8" stroke-linecap="round"/>
</svg>